<svg xmlns="http://www.w3.org/2000/svg" width="120" height="120" viewBox="0 0 120 120"><style type="text/css"><![CDATA[
	.st0{fill:#5091CD;}
]]></style><path class="st0" d="M60 2c32 0 58 26 58 58s-26 58-58 58-58-26-58-58 26-58 58-58m0-2c-33 0-60 27-60 60s27 60 60 60 60-27 60-60-27-60-60-60zM81.5 97.3h-43c-1.8 0-3.6-.8-4.8-2.2-1-1.2-1.4-2.6-1.2-4l1.6-13.9c1.6-10.5 12.7-18.4 25.9-18.4 6.6 0 12.9 2 17.8 5.5 4.4 3.3 7.3 7.8 8.1 12.7l1.7 14.1c.1 1.5-.4 3-1.4 4.1-1.2 1.4-2.9 2.1-4.7 2.1zm-21.5-36.5c-12.2 0-22.5 7.2-23.9 16.7l-1.6 13.9c-.2 1.1.3 2 .8 2.5.8.9 2.1 1.5 3.3 1.5h43c1.2 0 2.4-.5 3.2-1.4.7-.7 1-1.6.9-2.6l-1.7-14.1c-.7-4.4-3.3-8.5-7.3-11.4-4.6-3.3-10.5-5.1-16.7-5.1zm0-6.2c-9 0-16-7-16-16 0-8.8 7.2-16 16-16s16 7.2 16 16-7.2 16-16 16zm0-30c-7.7 0-14 6.3-14 14 0 7.9 6.2 14 14 14 7.7 0 14-6.3 14-14s-6.3-14-14-14z"/></svg>