<svg xmlns="http://www.w3.org/2000/svg" width="120" height="120" viewBox="0 0 120 120"><style type="text/css"><![CDATA[
	.st0{fill-rule:evenodd;clip-rule:evenodd;fill:#5091CD;}
	.st1{fill-rule:evenodd;clip-rule:evenodd;fill:#FFFFFF;}
	.st2{fill-rule:evenodd;clip-rule:evenodd;fill:#0075CC;}
]]></style><path class="st0" d="M60 120c33 0 60-27 60-60s-27-60-60-60-60 27-60 60 27 60 60 60z"/><path class="st2" d="M67.8 21.1l51 51c-5.5 26.7-28.8 46.9-56.8 47.9l-19.5-19.5 3-9.3-10.1-10.1 14.4-3.4-8-8 3.6-11.7 5.5-10.3 9.5-3.2-8-8 15.4-15.4z"/><path class="st1" d="M60 17.9c6 0 10.9 4.9 10.9 10.9s-4.9 10.9-10.9 10.9-10.9-4.9-10.9-10.9c0-6.1 4.9-10.9 10.9-10.9zm0 83.6h-14.5c-2.4 0-3.6-1.4-4.1-3.1l-2.4-8.6c-.5-1.9.6-3.4 2.7-3.4h36.6c2.1 0 3.3 1.6 2.7 3.4l-2.4 8.6c-.5 1.8-1.7 3.1-4.1 3.1h-14.5zm-4.9-44.2c0-1-1.5-1-1.5 0v.2c-.2 0-.4.2-.4.4v1.1c0 .2.2.4.4.4v3.6c0 1.1.5 2 1.5 2.5 2.7 1.4 7 1.3 9.7 0 1-.5 1.4-1.4 1.4-2.5v-3.6c.2 0 .4-.2.4-.4v-1c0-.2-.2-.4-.4-.4v-.2c0-1-1.5-1-1.5 0v5.8c0 .5-.2.9-.6 1.2-2.3 1.2-6 1.1-8.4 0-.5-.3-.7-.7-.7-1.2v-5.9h.1zm-.2 16.5c-.8 0-1.5.7-1.5 1.5s.7 1.5 1.5 1.5h10.2c.8 0 1.5-.7 1.5-1.5s-.7-1.5-1.5-1.5h-10.2zm6.6-2.6c.3 0 .5.3.5.5v1.2h-3.8v-1.2c0-.3.2-.5.5-.5v-3.6l1.4.1c.5 0 1 0 1.5-.1v3.6h-.1zm2.4-19.6v.2h-2.8c-.3 0-.5.2-.5.5s.2.5.5.5h2.8v.9h-2.8c-.3 0-.5.2-.5.5s.2.5.5.5h2.8v.9h-2.8c-.3 0-.5.2-.5.5s.2.5.5.5h2.8v.9h-2.8c-.3 0-.5.2-.5.5s.2.5.5.5h2.8v.9h-2.8c-.3 0-.5.2-.5.5s.2.5.5.5h2.8v.6h-2.8c-.3 0-.5.2-.5.5s.2.5.5.5h2.8v.2c0 2.8-7.8 2.8-7.8 0v-.2h2.8c.3 0 .5-.2.5-.5s-.2-.5-.5-.5h-2.8v-.9h2.8c.3 0 .5-.2.5-.5s-.2-.5-.5-.5h-2.8v-.9h2.8c.3 0 .5-.2.5-.5s-.2-.5-.5-.5h-2.8v-.9h2.8c.3 0 .5-.2.5-.5s-.2-.5-.5-.5h-2.8v-.9h2.8c.3 0 .5-.2.5-.5s-.2-.5-.5-.5h-2.8v-.9h2.8c.3 0 .5-.2.5-.5s-.2-.5-.5-.5h-2.8v-.2c0-2.5 7.8-2.5 7.8.3zm-26 23.4h12.7v.3c0 2.4 1.9 4.3 4.3 4.3h10.2c2.4 0 4.3-1.9 4.3-4.3v-.3h12.7c2 0 3.5 1.6 3.5 3.5s-1.6 3.5-3.5 3.5h-44.2c-2 0-3.5-1.6-3.5-3.5s1.6-3.5 3.5-3.5zm40.1-18.2l1.2 10.2c.2 2-1.7 3.7-3.7 3.7h-10.9c-.1-.3-.2-.5-.3-.7v-1.1c2.9-.8 4.9-2.6 4.9-5.7v-2.5c.6-1.1.5-3.4-.2-4.4-.3-1.1-1.2-1.9-2.3-2.3v-2.4c0-6.6-13.5-6.6-13.5 0v2.4c-1.1.4-1.9 1.1-2.3 2.3-.7 1.1-.8 3.3-.2 4.4v2.5c0 3.1 2 4.9 4.9 5.8v1l-.3.7h-10.8c-2 0-4-1.7-3.7-3.7l1.2-10.2c1-7.2 8.7-12.8 18-12.8 4.8 0 9.2 1.5 12.4 3.9 3 2.3 5.1 5.4 5.6 8.9z"/></svg>