<svg xmlns="http://www.w3.org/2000/svg" width="120" height="120" viewBox="0 0 120 120"><style type="text/css"><![CDATA[
	.st0{fill-rule:evenodd;clip-rule:evenodd;fill:#5091CD;}
	.st1{fill:#FFFFFF;}
	.st2{fill-rule:evenodd;clip-rule:evenodd;fill:#0075CC;}
]]></style><g id="Icons"><path class="st0" d="M60 120c33 0 60-27 60-60s-27-60-60-60-60 27-60 60 27 60 60 60z"/><path class="st2" d="M119.4 68.8l-33.2-33.2h-15l-19.7 9-16.3 18.8-2.5 25.4 31.1 31.1c28.3-1.8 51.5-23.4 55.6-51.1z"/><path class="st1" d="M78.9 29.8c-4.4-2.8-8.6-3.8-12.8-6.6-2.6-1.8-6.2-5.9-9.2-9.5-.6 5.8-2.3 8.1-4.3 9.8-4.3 3.3-6.9 4.3-10.6 6.3-3.1 1.6-19.9 11.6-19.9 33.2s18.1 37.4 38.3 37.4c20.1 0 37.6-14.6 37.6-36.8-.1-22.1-16.4-32.1-19.1-33.8zm.4 62.7c-.4.4-4.3 3.1-8.8 3.5-4.5.4-10.6.7-14.3-2.7-.6-.6-.4-1.4 0-1.8.4-.3.8-.6 1.3-.6s.4 0 .7.2c1.7 1.3 4.2 2.4 9.5 2.4s9.1-1.5 10.8-2.8c.8-.6 1.1-.1 1.2.3.1.5.2 1-.4 1.5zm-14.6-7.6c.9-.8 2.4-2.2 3.8-2.8 1.4-.6 2.2-.5 3.5-.5 1.3 0 2.8.1 3.8.8 1 .7 1.6 2.2 1.9 3 .3.8 0 1.3-.7 1.7-.6.3-.7.2-1.3-.9-.6-1.1-1.1-2.2-4-2.2s-3.8 1-5.3 2.2c-1.4 1.2-1.9 1.6-2.4.9-.4-.7-.2-1.3.7-2.2zm22.2.7c-3-.2-9-9.6-12.9-9.8-4.8-.2-15.4 10.1-23.6 10.1-5 0-6.5-.8-8.2-1.8-2.5-1.8-3.8-4.4-3.7-8.1.1-6.5 6.2-12.6 13.9-12.7 9.8-.1 16.5 9.7 21.5 9.6 4.1-.1 12.1-8.3 16.1-8.3 4.2 0 5.3 4.3 5.3 6.9s-.8 7.3-2.8 10.2c-2 3-3.3 4.1-5.6 3.9z"/></g></svg>