<svg xmlns="http://www.w3.org/2000/svg" width="120" height="120" viewBox="0 0 120 120"><style type="text/css"><![CDATA[
	.st0{fill-rule:evenodd;clip-rule:evenodd;fill:#5091CD;}
	.st1{fill-rule:evenodd;clip-rule:evenodd;fill:#FFFFFF;}
	.st2{fill-rule:evenodd;clip-rule:evenodd;fill:#0075CC;}
]]></style><path class="st0" d="M60 120c33 0 60-27 60-60s-27-60-60-60-60 27-60 60 27 60 60 60z"/><path class="st2" d="M29.2 56.2l9.1-9 11.4 11.4 14.4-2.9-8.6-8.6 9.1-9 17.1 17.1 9.2-8.1 27.3 27.3c-6.4 26.1-30.1 45.6-58.2 45.6h-.7l-36.6-36.5 5.6-2.3-5.5-5.5 13.1-12.8-6.7-6.7z"/><path class="st1" d="M23.9 79.1h13.1c1.4 1.1 3.1 2.1 5.1 2.9l2.4.9c-.3.6-.8.9-1.5.9h-19.1c-.9 0-1.6-.7-1.6-1.6v-1.5c0-.8.7-1.6 1.6-1.6zm36.1-17.2c-12.8 0-23.2 4.4-23.2 9.8s10.4 9.8 23.2 9.8c12.8 0 23.2-4.4 23.2-9.8 0-5.5-10.4-9.8-23.2-9.8zm-26.4-16.8c3.5 0 6.4 2.9 6.4 6.4 0 3.5-2.9 6.4-6.4 6.4-3.5 0-6.4-2.9-6.4-6.4 0-3.5 2.9-6.4 6.4-6.4zm.8 31.3h-10c-1.2 0-2.3-1-2.2-2.2l.7-6c.6-4.3 5.1-7.5 10.6-7.5 2.4 0 4.5.6 6.3 1.6-4.4 2.4-7 5.6-7 9.4.1 1.6.7 3.2 1.6 4.7zm52-31.3c3.5 0 6.4 2.9 6.4 6.4 0 3.5-2.9 6.4-6.4 6.4-3.5 0-6.4-2.9-6.4-6.4 0-3.5 2.8-6.4 6.4-6.4zm10.6 23l.7 6.1c.1 1.2-1 2.2-2.2 2.2h-10c1-1.5 1.5-3 1.5-4.7 0-3.8-2.6-7.1-7-9.4 1.8-1 3.9-1.6 6.3-1.6 2.8 0 5.4.9 7.3 2.3 1.9 1.2 3.1 3 3.4 5.1zm-37-32c3.5 0 6.4 2.9 6.4 6.4 0 3.5-2.9 6.4-6.4 6.4-3.5 0-6.4-2.9-6.4-6.4 0-3.6 2.9-6.4 6.4-6.4zm-10.6 22.9c.6-4.2 5.2-7.5 10.6-7.5 2.8 0 5.4.9 7.3 2.3 1.8 1.3 3 3.1 3.3 5.2-3.3-.6-6.9-1-10.6-1s-7.4.4-10.6 1zm33.6 20.1h13.1c.9 0 1.6.7 1.6 1.6v1.5c0 .9-.7 1.6-1.6 1.6h-19.2c-.7 0-1.2-.4-1.5-.9.8-.3 1.7-.6 2.4-.9 2.1-.7 3.8-1.7 5.2-2.9z"/></svg>