<svg xmlns="http://www.w3.org/2000/svg" width="120" height="120" viewBox="0 0 120 120"><style type="text/css"><![CDATA[
	.st0{fill-rule:evenodd;clip-rule:evenodd;fill:#5091CD;}
	.st1{fill-rule:evenodd;clip-rule:evenodd;fill:#FFFFFF;}
	.st2{fill-rule:evenodd;clip-rule:evenodd;fill:#0075CC;}
]]></style><path class="st0" d="M60 120c33 0 60-27 60-60s-27-60-60-60-60 27-60 60 27 60 60 60z"/><path class="st2" d="M73.3 30l44.9 44.9c-6 23.5-26 41.5-50.6 44.6l-26.5-26.4 21.6-20.6-15.9-16 4.5-2.7-9.6-9.6 6.1-2 3.7 3.7 2.4-6.7-4.2-4.2 2.1-2 4.7 4.7 7.7-1.4-5.2-5.1 2.1-6.1 8.6 8.6 3.6-3.7z"/><path class="st1" d="M78.7 79.7l1.3 10.6c.2 2.1-1.7 3.8-3.8 3.8h-32.3c-2.1 0-4.1-1.7-3.8-3.8l1.3-10.6c1.1-7.5 9-13.2 18.7-13.2 5 0 9.5 1.5 12.9 4 3 2.4 5.1 5.6 5.7 9.2zm-17.3-53.7c0-.8-.6-1.4-1.4-1.4-.8 0-1.4.6-1.4 1.4v4.1c0 .8.6 1.4 1.4 1.4.8 0 1.4-.6 1.4-1.4v-4.1zm-12.6 4c-.6-.6-1.5-.6-2 0-.6.6-.6 1.5 0 2l2.9 2.9c.6.6 1.5.6 2 0 .6-.6.6-1.5 0-2l-2.9-2.9zm24.4 2c.6-.6.6-1.5 0-2-.6-.6-1.5-.6-2 0l-2.9 2.9c-.6.6-.6 1.5 0 2 .6.6 1.5.6 2 0l2.9-2.9zm-26.4 22.5c-.6.6-.6 1.5 0 2 .6.6 1.5.6 2 0l2.9-2.9c.6-.6.6-1.5 0-2-.6-.6-1.5-.6-2 0l-2.9 2.9zm24.4 2c.6.6 1.5.6 2 0 .6-.6.6-1.5 0-2l-2.9-2.9c-.6-.6-1.5-.6-2 0-.6.6-.6 1.5 0 2l2.9 2.9zm-28.5-14.7c-.8 0-1.4.6-1.4 1.4 0 .8.6 1.4 1.4 1.4h4.1c.8 0 1.4-.6 1.4-1.4 0-.8-.6-1.4-1.4-1.4h-4.1zm30.5 0c-.8 0-1.4.6-1.4 1.4 0 .8.6 1.4 1.4 1.4h4.1c.8 0 1.4-.6 1.4-1.4 0-.8-.6-1.4-1.4-1.4h-4.1zm-13.2 14.5h-.7v-3c0-.7 0-1.3-.1-1.9-.1-.6-.2-1.2-.4-1.8l-1.4-5.2h5.2l-1.4 5.2.6.2-.6-.2c-.2.7-.3 1.3-.4 1.9-.1.6-.1 1.2-.1 1.8v3.1h-.7v-.1zm-2 0h-.7c-.8 0-1-.3-1.3-1-1.9-4.6-5.9-8.8-5.2-13.8.7-4.4 4.6-7.6 9.2-7.6s8.6 3.2 9.2 7.6c.7 5-3.3 9.2-5.2 13.8-.3.7-.6 1-1.3 1h-.7v-3.1c0-.6 0-1.1.1-1.6s.2-1.1.4-1.7l1.6-6c.1-.3-.1-.7-.4-.8h-7.2c-.4 0-.6.3-.6.6v.2l1.6 6c.2.6.3 1.1.3 1.7.1.5.1 1.1.1 1.7v3h.1zm5.3 1.6v3.1c0 .8-.7 1.5-1.5 1.5h-3.7c-.8 0-1.5-.7-1.5-1.5v-3.1h6.1c.2.1.4.1.6 0z"/></svg>