<svg xmlns="http://www.w3.org/2000/svg" width="120" height="120" viewBox="0 0 120 120"><style type="text/css"><![CDATA[
	.st0{fill-rule:evenodd;clip-rule:evenodd;fill:#5091CD;}
	.st1{fill-rule:evenodd;clip-rule:evenodd;fill:#FFFFFF;}
	.st2{fill-rule:evenodd;clip-rule:evenodd;fill:#0075CC;}
]]></style><path class="st0" d="M60 120c33 0 60-27 60-60s-27-60-60-60-60 27-60 60 27 60 60 60z"/><path class="st2" d="M38.5 83.3l-7-17.2 2.6-20.8 13.5-11.8 18.6-2.7 17.1 7.6 35.1 35.1c-5.2 22.1-22.7 39.6-44.8 44.8l-35.1-35z"/><path class="st1" d="M60 28.3c17.5 0 31.7 14.2 31.7 31.7s-14.2 31.7-31.7 31.7-31.7-14.2-31.7-31.7 14.2-31.7 31.7-31.7zm-.8 34.1l15.3 5.9c1.1.4 2.3-.1 2.7-1.2.4-1.1-.1-2.3-1.2-2.7l-13.2-5.1v-13.4c0-1.5-1.3-2.8-2.8-2.8s-2.8 1.3-2.8 2.8v13.8c0 1.3.8 2.3 2 2.7zm.8-27.3c-13.8 0-24.9 11.2-24.9 24.9s11.1 24.9 24.9 24.9c13.8 0 24.9-11.2 24.9-24.9s-11.1-24.9-24.9-24.9z"/></svg>